Exact Audio Copy V0.99 prebeta 1 from 25. May 2007

EAC 抓取日志文件从12. 十二月 2010, 14:24

罗天婵 / 20世纪中华歌坛名人百集珍藏版

使用驱动器  ：BENQ    DVD-ROM 16X   Adapter: 0  ID: 1

读取模式     : 保护
使用精确流   : 是
废除音频缓冲 : 是
使用 C2 指针 : 否

读取偏移校正                   : 738
读取 Lead-In 和 Lead-Out       : 否
用静音填充抓取中丢失偏移的采样 : 是
去除首尾静音块                 : 否
已用接口                       : 已安装外部 ASPI 接口

所用输出格式 : 内部 WAV 函数
样本格式     : 44.100 Hz;16 Bit;立体声


被抓轨 CD 的 TOC

     音轨 |   开始   |   长度   | 起始扇区 | 结尾扇区 
    --------------------------------------------------
       1  |  0:00.00 |  2:11.37 |       0  |    9861  
       2  |  2:11.37 |  3:24.05 |    9862  |   25166  
       3  |  5:35.42 |  3:24.30 |   25167  |   40496  
       4  |  8:59.72 |  3:41.58 |   40497  |   57129  
       5  | 12:41.55 |  3:31.35 |   57130  |   72989  
       6  | 16:13.15 |  2:35.67 |   72990  |   84681  
       7  | 18:49.07 |  3:02.30 |   84682  |   98361  
       8  | 21:51.37 |  3:21.20 |   98362  |  113456  
       9  | 25:12.57 |  2:37.48 |  113457  |  125279  
      10  | 27:50.30 |  2:34.07 |  125280  |  136836  
      11  | 30:24.37 |  3:11.50 |  136837  |  151211  
      12  | 33:36.12 |  1:43.08 |  151212  |  158944  
      13  | 35:19.20 |  3:08.32 |  158945  |  173076  
      14  | 38:27.52 |  3:44.48 |  173077  |  189924  
      15  | 42:12.25 |  2:06.20 |  189925  |  199394  
      16  | 44:18.45 |  8:02.47 |  199395  |  235591  
      17  | 52:21.17 |  6:56.40 |  235592  |  266831  


范围状态及错误

已选择范围

     文件名 E:\文件夹\20世纪中华歌坛名人百集珍藏版-罗天婵[lwg188原创]\罗天婵 - 20世纪中华歌坛名人百集珍藏版.wav

     峰值电平 93.2 %
     范围质量 99.9 %
     复制 CRC 8BB479C8
     复制成功

没有错误发生

状态报告结尾
